<svg width="30" height="24" viewBox="0 0 30 24" fill="none" xmlns="http://www.w3.org/2000/svg">
<g clip-path="url(#clip0_1095_2021)">
<path d="M13.1702 10.932V17.0676C13.1702 17.4609 13.0635 17.7952 12.8501 18.0706C12.6367 18.3459 12.3775 18.4835 12.0726 18.4835C11.7678 18.4835 11.5086 18.3459 11.2952 18.0706C11.0818 17.7952 10.9751 17.4609 10.9751 17.0676V11.8759H10.2434V25.3272C10.2434 25.7795 10.1176 26.1679 9.86609 26.4924C9.61457 26.8168 9.3135 26.9791 8.96289 26.9791C8.61228 26.9791 8.31121 26.8168 8.05969 26.4924C7.80817 26.1679 7.6824 25.7795 7.6824 25.3272V18.4835H6.9507V25.3272C6.9507 25.7795 6.82493 26.1679 6.57341 26.4924C6.32188 26.8168 6.02082 26.9791 5.67021 26.9791C5.3196 26.9791 5.01853 26.8168 4.76701 26.4924C4.51548 26.1679 4.38972 25.7795 4.38972 25.3272V11.8759H3.65801V17.0676C3.65801 17.4609 3.55131 17.7952 3.33789 18.0706C3.12448 18.3459 2.86533 18.4835 2.56045 18.4835C2.25557 18.4835 1.99643 18.3459 1.78301 18.0706C1.5696 17.7952 1.46289 17.4609 1.46289 17.0676V10.932C1.46289 10.1453 1.67631 9.47671 2.10313 8.92607C2.52996 8.37544 3.04826 8.10012 3.65801 8.10012H10.9751C11.5848 8.10012 12.1031 8.37544 12.53 8.92607C12.9568 9.47671 13.1702 10.1453 13.1702 10.932ZM9.87753 4.32433C9.87753 5.23878 9.62791 6.01802 9.12867 6.66207C8.62943 7.30612 8.02539 7.62814 7.31655 7.62814C6.60771 7.62814 6.00367 7.30612 5.50443 6.66207C5.00519 6.01802 4.75557 5.23878 4.75557 4.32433C4.75557 3.40988 5.00519 2.63063 5.50443 1.98658C6.00367 1.34253 6.60771 1.02051 7.31655 1.02051C8.02539 1.02051 8.62943 1.34253 9.12867 1.98658C9.62791 2.63063 9.87753 3.40988 9.87753 4.32433Z" fill="#1CB0EA"/>
<path d="M20.1215 7.06092C21.5359 7.06092 22.6825 5.91433 22.6825 4.49994C22.6825 3.08555 21.5359 1.93896 20.1215 1.93896C18.7071 1.93896 17.5605 3.08555 17.5605 4.49994C17.5605 5.91433 18.7071 7.06092 20.1215 7.06092Z" fill="#1CB0EA"/>
<path d="M23.8141 16.4361L21.6015 10.3562L21.5887 10.2937C21.5887 10.2049 21.6633 10.133 21.7561 10.133C21.8351 10.133 21.9014 10.1858 21.919 10.2562L23.4232 14.1894C23.5232 14.4145 23.9343 14.5639 24.2046 14.5639C24.566 14.5639 24.6034 13.8543 24.5956 13.815L23.0914 9.93681C22.9607 9.06771 22.083 8.19824 21.0814 8.19824H19.1211C18.1195 8.19824 17.1766 9.06771 17.0459 9.93681L15.6092 13.815C15.5766 13.8895 15.6092 14.5639 15.9997 14.5639C16.3034 14.5639 16.7074 14.4579 16.7812 14.1894L18.2322 10.2394C18.2447 10.2078 18.2664 10.1808 18.2946 10.1618C18.3227 10.1429 18.3559 10.1328 18.3898 10.133C18.4823 10.133 18.5568 10.2049 18.5568 10.2933L18.5463 10.3506L16.3906 16.4361C16.3865 16.4541 16.3906 16.7922 16.3906 16.8106C16.3906 16.9401 16.7033 17.185 16.8392 17.185H18.2299V22.0884C18.2299 22.4779 18.5729 22.8018 18.9788 22.8018C19.3847 22.8018 19.7277 22.4775 19.7277 22.0884V17.1817C19.7277 17.0757 20.4766 17.0791 20.4766 17.185V22.0529C20.4766 22.4423 20.82 22.8018 21.2255 22.8018C21.6322 22.8018 21.9744 22.4419 21.9744 22.0529V17.185H23.4232C23.5587 17.185 23.8141 16.9401 23.8141 16.8106C23.8141 16.7806 23.825 16.462 23.8141 16.4361Z" fill="#1CB0EA"/>
</g>
<defs>
<clipPath id="clip0_1095_2021">
<rect width="30" height="24" fill="white"/>
</clipPath>
</defs>
</svg>
