<svg width="25" height="27" viewBox="0 0 25 27" fill="none" xmlns="http://www.w3.org/2000/svg">
<path d="M5.5 19.25H4.25C3.5625 19.25 2.97417 19.0054 2.485 18.5162C1.99584 18.0271 1.75084 17.4383 1.75 16.75V7.375C1.39584 7.375 1.09917 7.255 0.860004 7.015C0.620838 6.775 0.500838 6.47833 0.500004 6.125C0.499171 5.77167 0.619171 5.475 0.860004 5.235C1.10084 4.995 1.3975 4.875 1.75 4.875H5.5V3H4.875C4.52084 3 4.22417 2.88 3.985 2.64C3.74584 2.4 3.62584 2.10333 3.625 1.75C3.62417 1.39667 3.74417 1.1 3.985 0.86C4.22584 0.62 4.5225 0.5 4.875 0.5H8.625C8.97917 0.5 9.27625 0.62 9.51625 0.86C9.75625 1.1 9.87583 1.39667 9.875 1.75C9.87417 2.10333 9.75417 2.40042 9.515 2.64125C9.27584 2.88208 8.97917 3.00167 8.625 3H8V4.875H11.75C12.1042 4.875 12.4013 4.995 12.6413 5.235C12.8813 5.475 13.0008 5.77167 13 6.125C12.9992 6.47833 12.8792 6.77542 12.64 7.01625C12.4008 7.25708 12.1042 7.37667 11.75 7.375V16.75C11.75 17.4375 11.5054 18.0262 11.0163 18.5162C10.5271 19.0062 9.93833 19.2508 9.25 19.25H8V24.875C8 25.2292 7.88 25.5262 7.64 25.7662C7.4 26.0062 7.10334 26.1258 6.75 26.125C6.39667 26.1242 6.1 26.0042 5.86 25.765C5.62 25.5258 5.5 25.2292 5.5 24.875V19.25ZM4.25 16.75H9.25V14.875H7.0625C6.8125 14.875 6.59375 14.7812 6.40625 14.5937C6.21875 14.4062 6.125 14.1875 6.125 13.9375C6.125 13.6875 6.21875 13.4687 6.40625 13.2812C6.59375 13.0937 6.8125 13 7.0625 13H9.25V11.125H7.0625C6.8125 11.125 6.59375 11.0312 6.40625 10.8437C6.21875 10.6562 6.125 10.4375 6.125 10.1875C6.125 9.9375 6.21875 9.71875 6.40625 9.53125C6.59375 9.34375 6.8125 9.25 7.0625 9.25H9.25V7.375H4.25V16.75ZM16.75 25.5C16.0625 25.5 15.4742 25.2554 14.985 24.7662C14.4958 24.2771 14.2508 23.6883 14.25 23V14.875C14.25 14.2708 14.3542 13.7708 14.5625 13.375C14.7708 12.9792 14.9896 12.6354 15.2188 12.3437C15.4479 12.0521 15.6562 11.8179 15.8438 11.6412C16.0312 11.4646 16.125 11.2925 16.125 11.125V10.5C15.7708 10.5 15.4742 10.3804 15.235 10.1412C14.9958 9.90208 14.8758 9.605 14.875 9.25C14.8742 8.895 14.9942 8.59833 15.235 8.36C15.4758 8.12167 15.7725 8.00167 16.125 8H22.375C22.7292 8 23.0262 8.12 23.2662 8.36C23.5062 8.6 23.6258 8.89666 23.625 9.25C23.6242 9.60333 23.5042 9.90042 23.265 10.1412C23.0258 10.3821 22.7292 10.5017 22.375 10.5V11.125C22.375 11.2917 22.4792 11.4792 22.6875 11.6875C22.8958 11.8958 23.125 12.1458 23.375 12.4375C23.6042 12.7292 23.8075 13.0729 23.985 13.4687C24.1625 13.8646 24.2508 14.3333 24.25 14.875V23C24.25 23.6875 24.0054 24.2762 23.5162 24.7662C23.0271 25.2562 22.4383 25.5008 21.75 25.5H16.75ZM16.75 15.5H21.75V14.875C21.75 14.5625 21.6562 14.2917 21.4687 14.0625C21.2812 13.8333 21.0729 13.5833 20.8437 13.3125C20.6146 13.0417 20.3958 12.7396 20.1875 12.4062C19.9792 12.0729 19.875 11.6458 19.875 11.125V10.5H18.625V11.125C18.625 11.625 18.5258 12.0417 18.3275 12.375C18.1292 12.7083 17.9158 13.0104 17.6875 13.2812C17.4592 13.5521 17.2454 13.8075 17.0463 14.0475C16.8471 14.2875 16.7483 14.5633 16.75 14.875V15.5ZM16.75 23H21.75V21.125H16.75V23Z" fill="#1CB0EA"/>
</svg>
