<svg width="32" height="28" viewBox="0 0 32 28" fill="none" xmlns="http://www.w3.org/2000/svg">
<path d="M5.08404 0H18.916C19.848 0 20.62 -2.45869e-07 21.218 0.0559998C21.812 0.112 22.44 0.236 22.934 0.644C23.61 1.198 23.994 2.03 24 2.902C24.004 3.534 23.72 4.102 23.398 4.618C23.072 5.138 22.598 5.764 22.018 6.526L16.838 13.354C16.346 14.002 16.184 14.222 16.072 14.456C15.962 14.6842 15.8814 14.9255 15.832 15.174C15.78 15.434 15.776 15.714 15.776 16.538V25.01C15.776 25.44 15.776 25.826 15.75 26.136C15.722 26.442 15.658 26.854 15.396 27.21C15.2305 27.4381 15.0167 27.627 14.7699 27.7632C14.5231 27.8994 14.2493 27.9795 13.968 27.998C13.514 28.026 13.13 27.844 12.864 27.694C12.598 27.544 12.284 27.328 11.942 27.092L9.97404 25.732L9.89004 25.674C9.49004 25.4 9.13004 25.154 8.86204 24.814C8.62708 24.5165 8.45064 24.1772 8.34204 23.814C8.22204 23.398 8.22204 22.96 8.22204 22.462V16.54C8.22204 15.716 8.22004 15.434 8.16804 15.176C8.11868 14.9275 8.03804 14.6862 7.92804 14.458C7.81604 14.224 7.65404 14.004 7.16204 13.356L2.04604 6.616L2.03404 6.596L1.98004 6.528C1.49417 5.91159 1.03443 5.27503 0.602042 4.62C0.280042 4.106 -0.00395825 3.536 4.17507e-05 2.904C0.00404175 2.032 0.390042 1.2 1.06604 0.644C1.56004 0.238 2.18604 0.114 2.78204 0.0579996C3.38004 -3.8743e-07 4.15204 0 5.08404 0ZM4.85004 7L8.75404 12.144L8.81004 12.218C9.22604 12.766 9.51804 13.148 9.72804 13.582C9.91471 13.966 10.0494 14.3687 10.132 14.79C10.224 15.262 10.224 15.748 10.224 16.446V22.358C10.224 23.018 10.232 23.148 10.264 23.25C10.2987 23.37 10.3534 23.4767 10.428 23.57C10.488 23.646 10.578 23.72 11.11 24.088L13.042 25.42C13.376 25.65 13.596 25.8 13.762 25.902C13.776 25.696 13.776 25.41 13.776 24.968V16.446C13.776 15.746 13.776 15.262 13.868 14.79C13.952 14.3687 14.0867 13.966 14.272 13.582C14.482 13.148 14.774 12.766 15.192 12.216L15.246 12.144L19.15 7H4.85004ZM20.666 5C21.138 4.378 21.472 3.924 21.702 3.558C21.982 3.11 22.002 2.948 22 2.912C22.0006 2.77406 21.9708 2.63769 21.9127 2.51257C21.8546 2.38744 21.7697 2.27663 21.664 2.188C21.654 2.18 21.54 2.096 21.032 2.048C20.538 2 19.86 2 18.864 2H5.13604C4.13804 2 3.46204 2 2.96804 2.048C2.46004 2.096 2.34604 2.18 2.33604 2.188C2.23035 2.27663 2.14545 2.38744 2.08738 2.51257C2.02931 2.63769 1.99949 2.77406 2.00004 2.912C2.00004 2.948 2.01804 3.112 2.29804 3.558C2.52804 3.924 2.86204 4.378 3.33404 5H20.666ZM24 11C24 10.7348 24.1054 10.4804 24.2929 10.2929C24.4805 10.1054 24.7348 10 25 10H31C31.2653 10 31.5196 10.1054 31.7071 10.2929C31.8947 10.4804 32 10.7348 32 11C32 11.2652 31.8947 11.5196 31.7071 11.7071C31.5196 11.8946 31.2653 12 31 12H25C24.7348 12 24.4805 11.8946 24.2929 11.7071C24.1054 11.5196 24 11.2652 24 11ZM21 16C21 15.7348 21.1054 15.4804 21.2929 15.2929C21.4805 15.1054 21.7348 15 22 15H31C31.2653 15 31.5196 15.1054 31.7071 15.2929C31.8947 15.4804 32 15.7348 32 16C32 16.2652 31.8947 16.5196 31.7071 16.7071C31.5196 16.8946 31.2653 17 31 17H22C21.7348 17 21.4805 16.8946 21.2929 16.7071C21.1054 16.5196 21 16.2652 21 16ZM20 21C20 20.7348 20.1054 20.4804 20.2929 20.2929C20.4805 20.1054 20.7348 20 21 20H31C31.2653 20 31.5196 20.1054 31.7071 20.2929C31.8947 20.4804 32 20.7348 32 21C32 21.2652 31.8947 21.5196 31.7071 21.7071C31.5196 21.8946 31.2653 22 31 22H21C20.7348 22 20.4805 21.8946 20.2929 21.7071C20.1054 21.5196 20 21.2652 20 21ZM20 26C20 25.7348 20.1054 25.4804 20.2929 25.2929C20.4805 25.1054 20.7348 25 21 25H26C26.2653 25 26.5196 25.1054 26.7071 25.2929C26.8947 25.4804 27 25.7348 27 26C27 26.2652 26.8947 26.5196 26.7071 26.7071C26.5196 26.8946 26.2653 27 26 27H21C20.7348 27 20.4805 26.8946 20.2929 26.7071C20.1054 26.5196 20 26.2652 20 26Z" fill="#AFAFAF"/>
</svg>
