<svg width="18" height="15" viewBox="0 0 18 15" fill="none" xmlns="http://www.w3.org/2000/svg">
<path d="M3.79187 14.6894L0.25 11.53L1.08188 10.5975L4.6075 13.7419L9.41375 9.08875C9.63777 8.87227 9.93685 8.75086 10.2484 8.74992C10.5599 8.74899 10.8597 8.86862 11.085 9.08375L13.35 11.2487L16.8375 7.51562L17.75 8.36875L14.2619 12.1031C14.1492 12.2237 14.0137 12.3208 13.8633 12.3886C13.7128 12.4565 13.5504 12.4939 13.3854 12.4985C13.2205 12.5032 13.0562 12.475 12.9022 12.4157C12.7481 12.3565 12.6074 12.2672 12.4881 12.1531L10.2525 10.0162L5.46125 14.6537C5.23878 14.8692 4.94306 14.9926 4.63344 14.999C4.32381 15.0055 4.02318 14.8953 3.79187 14.6894ZM17.75 4.375H15.25L16.5 2.5L17.75 4.375ZM12.75 0H10.25V1.25H12.75V2.5H10.875V3.75H12.75V5H10.25V6.25H12.75C13.0814 6.2495 13.399 6.11765 13.6333 5.88334C13.8676 5.64902 13.9995 5.33137 14 5V1.25C14 0.918479 13.8683 0.600537 13.6339 0.366116C13.3995 0.131696 13.0815 0 12.75 0ZM9 6.25H5.25V3.75C5.25 3.41848 5.3817 3.10054 5.61612 2.86612C5.85054 2.6317 6.16848 2.5 6.5 2.5H7.75V1.25H5.25V0H7.75C8.08152 0 8.39946 0.131696 8.63388 0.366116C8.8683 0.600537 9 0.918479 9 1.25V2.5C9 2.83152 8.8683 3.14946 8.63388 3.38388C8.39946 3.6183 8.08152 3.75 7.75 3.75H6.5V5H9V6.25ZM2.75 5V0H1.5V0.625H0.25V1.875H1.5V5H0.25V6.25H4V5H2.75Z" fill="#999999"/>
</svg>
