<svg width="26" height="21" viewBox="0 0 26 21" fill="none" xmlns="http://www.w3.org/2000/svg">
<path d="M5.85824 20.4544C5.86395 20.4581 5.87156 20.4563 5.87727 20.46C5.92208 20.4848 5.97236 20.4986 6.02376 20.5C6.05204 20.4999 6.0802 20.4962 6.10746 20.4888L12.9994 18.635L19.8913 20.4888C19.9185 20.4962 19.9467 20.4999 19.975 20.5C20.0262 20.4983 20.0763 20.4843 20.1208 20.4594C20.1272 20.4563 20.1341 20.4575 20.1399 20.4538L25.8472 17.0163C25.9062 16.9806 25.9518 16.927 25.977 16.8634C26.0022 16.7999 26.0056 16.73 25.9867 16.6644L22.8261 5.72688C22.8131 5.68139 22.7897 5.63942 22.7578 5.60411C22.726 5.5688 22.6864 5.54108 22.6421 5.52303C22.5977 5.50498 22.5498 5.49708 22.502 5.49991C22.4541 5.50274 22.4075 5.51623 22.3657 5.53938L19.2191 7.27938C19.1502 7.32225 19.1006 7.38959 19.0806 7.46747C19.0607 7.54534 19.0719 7.62779 19.1118 7.69778C19.1518 7.76777 19.2176 7.81994 19.2955 7.8435C19.3734 7.86706 19.4575 7.86022 19.5304 7.82438L22.3264 6.2775L25.3113 16.6063L20.2286 19.6681L19.0212 10.1488C19.0108 10.0665 18.9676 9.9916 18.9012 9.94068C18.8348 9.88975 18.7506 9.86691 18.667 9.87719C18.5835 9.88747 18.5076 9.93002 18.4559 9.99548C18.4043 10.0609 18.3811 10.144 18.3915 10.2263L19.6008 19.7631L13.3164 18.0725V16.3663C13.3164 16.2834 13.283 16.2039 13.2236 16.1453C13.1641 16.0867 13.0835 16.0538 12.9994 16.0538C12.9153 16.0538 12.8346 16.0867 12.7752 16.1453C12.7157 16.2039 12.6823 16.2834 12.6823 16.3663V18.0725L6.39727 19.7631L7.60659 10.2263C7.61175 10.1855 7.60872 10.1441 7.59766 10.1046C7.58661 10.065 7.56775 10.0279 7.54217 9.99548C7.51658 9.96306 7.48477 9.93594 7.44855 9.91564C7.41232 9.89534 7.3724 9.88228 7.33105 9.87719C7.2897 9.8721 7.24774 9.87509 7.20757 9.88598C7.16739 9.89687 7.12979 9.91546 7.0969 9.94068C7.06401 9.96589 7.03648 9.99725 7.01589 10.0329C6.9953 10.0687 6.98204 10.108 6.97688 10.1488L5.7701 19.6681L0.687415 16.6069L3.67234 6.27875L6.46829 7.82563C6.54123 7.86147 6.62534 7.86831 6.70325 7.84475C6.78116 7.82119 6.84691 7.76902 6.88689 7.69903C6.92688 7.62905 6.93805 7.54659 6.91809 7.46872C6.89813 7.39084 6.84857 7.3235 6.77966 7.28063L3.63239 5.54C3.5907 5.51648 3.5441 5.50268 3.49617 5.49965C3.44823 5.49663 3.40022 5.50448 3.35584 5.52258C3.31145 5.54068 3.27186 5.56856 3.2401 5.60408C3.20835 5.63961 3.18527 5.68182 3.17263 5.7275L0.0120492 16.665C-0.0068491 16.7306 -0.00344324 16.8005 0.021747 16.8641C0.0469372 16.9276 0.0925281 16.9813 0.151561 17.0169L5.85824 20.4544Z" fill="#97CDE2"/>
<path d="M12.7846 15.105C12.8429 15.158 12.9191 15.1875 12.9983 15.1879C13.0775 15.1882 13.154 15.1593 13.2127 15.1069C13.4239 14.9175 18.3899 10.4263 18.3899 5.8125C18.3899 2.83312 16.0226 0.5 12.9996 0.5C9.97664 0.5 7.60938 2.83312 7.60938 5.8125C7.60938 10.3463 12.5735 14.9125 12.7846 15.105ZM12.9996 1.125C15.7106 1.125 17.7557 3.14 17.7557 5.8125C17.7557 9.62313 13.9553 13.5231 13.0015 14.4419C12.0497 13.5125 8.24352 9.56125 8.24352 5.8125C8.24352 3.14 10.2886 1.125 12.9996 1.125Z" fill="#97CDE2"/>
<path d="M15.8538 5.8125C15.8538 4.26188 14.5735 3 13.0001 3C11.4268 3 10.1465 4.26188 10.1465 5.8125C10.1465 7.36312 11.4268 8.625 13.0001 8.625C14.5735 8.625 15.8538 7.36312 15.8538 5.8125ZM13.0001 8C11.7762 8 10.7806 7.01875 10.7806 5.8125C10.7806 4.60625 11.7762 3.625 13.0001 3.625C14.224 3.625 15.2197 4.60625 15.2197 5.8125C15.2197 7.01875 14.224 8 13.0001 8Z" fill="#97CDE2"/>
</svg>
